<?xml version="1.0" standalone="no"?><!DOCTYPE svg PUBLIC "-//W3C//DTD SVG 1.1//EN" "http://www.w3.org/Graphics/SVG/1.1/DTD/svg11.dtd"><svg t="1756192913915" class="icon" viewBox="0 0 1024 1024" version="1.1" xmlns="http://www.w3.org/2000/svg" p-id="6464" xmlns:xlink="http://www.w3.org/1999/xlink" width="200" height="200"><path d="M512 128a384 384 0 1 0 0 768 384 384 0 0 0 0-768zM42.666667 512C42.666667 252.8 252.8 42.666667 512 42.666667s469.333333 210.133333 469.333333 469.333333-210.133333 469.333333-469.333333 469.333333S42.666667 771.2 42.666667 512z m341.333333-170.666667v170.666667H298.666667V341.333333h85.333333z m341.333333 0v170.666667h-85.333333V341.333333h85.333333z m-345.6 240.384l21.333334 36.906667C423.338667 657.066667 464.64 682.666667 512 682.666667s88.746667-25.642667 110.933333-64l21.333334-36.949334 73.856 42.709334-21.333334 36.949333A213.248 213.248 0 0 1 512 768a213.248 213.248 0 0 1-184.746667-106.666667l-21.376-36.906666L379.733333 581.717333z" fill="#000000" p-id="6465"></path></svg>